# xmcd
#
# Track frame offsets:
#	150
#	13423
#	23751
#	37990
#	49947
#	61482
#	74443
#	89395
#	102372
#	116004
#	127709
#	140723
#	155510
#	168588
#	182994
#	197520
#
# Disc length: 2792 seconds
#
# Revision: 1
# Processed by: cddbd v1.5.2PL0 Copyright (c) Steve Scherf et al.
# Submitted via: audiograbber 1.83.01
#
DISCID=e30ae610
DTITLE=Nashville Bluegrass Band - Best Of The Sugar Hill Years
DYEAR=1900
DGENRE=Bluegrass
TTITLE0=Rock Bottom Blues
TTITLE1=The Boys Are Back in Town
TTITLE2=Don't Let Our Love Die
TTITLE3=Biggest Liars in Town
TTITLE4=The Fool
TTITLE5=Blue Train
TTITLE6=Waitin' for the Hard Time to Go
TTITLE7=When I Get Where I'm Goin'
TTITLE8=Backtrackin'
TTITLE9=Tear My Stillhouse Down
TTITLE10=Red Clay Halo
TTITLE11=Blue Cadillac
TTITLE12=Fiddlin' Bill
TTITLE13=Travelin' Railroad Man Blues
TTITLE14=There's a Better Way
TTITLE15=Rockin' Chair Money
EXTD=
EXTT0=
EXTT1=
EXTT2=
EXTT3=
EXTT4=
EXTT5=
EXTT6=
EXTT7=
EXTT8=
EXTT9=
EXTT10=
EXTT11=
EXTT12=
EXTT13=
EXTT14=
EXTT15=
PLAYORDER=
